<svg width="35" height="25" viewBox="0 0 35 25" fill="none" xmlns="http://www.w3.org/2000/svg">
<path d="M29.5521 0H5.70348C3.03426 0 0.861328 2.06212 0.861328 4.59521V20.4048C0.861328 22.9379 3.03426 25 5.70348 25H29.5555C32.2247 25 34.3976 22.9379 34.3976 20.4048V4.59521C34.3976 2.06212 32.2247 0 29.5555 0H29.5521ZM29.5521 2.19577C29.7499 2.19577 29.9411 2.22123 30.1289 2.25942L20.0656 13.0951C19.4486 13.7602 18.56 14.1389 17.6278 14.1389C16.6956 14.1389 15.807 13.757 15.1899 13.0951L5.12672 2.2626C5.31115 2.22123 5.50229 2.19896 5.70013 2.19896H29.5521V2.19577ZM32.0805 20.4048C32.0805 21.7286 30.9471 22.8042 29.5521 22.8042H5.70348C4.30851 22.8042 3.1751 21.7286 3.1751 20.4048V4.59521C3.1751 4.2738 3.24217 3.9683 3.36624 3.68508L13.4563 14.5494C14.5126 15.6855 16.035 16.3378 17.6311 16.3378C19.2273 16.3378 20.7497 15.6855 21.806 14.5494L31.8927 3.68508C32.0134 3.96512 32.0838 4.27062 32.0838 4.59203V20.4016L32.0805 20.4048Z" fill="#1E1E1E"/>
</svg>
